<svg width="18" height="18" viewBox="0 0 18 18" fill="none" xmlns="http://www.w3.org/2000/svg">
<g clip-path="url(#clip0_1291_3651)">
<path d="M6.18752 16.9594V13.0781L3.29065 15.2156C4.10627 15.975 5.09065 16.5656 6.18752 16.9594M11.8125 16.9594C12.9094 16.5656 13.8938 15.975 14.7094 15.2156L11.8125 13.05V16.9594M1.04065 11.8125C1.12502 12.0938 1.23752 12.3469 1.37815 12.6281L2.47502 11.8125H1.04065ZM15.525 11.8125L16.6219 12.6281C16.7344 12.375 16.8469 12.0938 16.9594 11.8125H15.525Z" fill="#2A5F9E"/>
<path d="M6.60939 10.6875H0.731262C0.815637 11.0813 0.928137 11.4469 1.04064 11.8125H2.47501L1.37814 12.6281C1.60314 13.1063 1.85626 13.5281 2.16564 13.95L5.06251 11.8125H6.18751V12.375L2.89689 14.7938L3.29064 15.1875L6.18751 13.0781V16.9594C6.55314 17.1 6.91876 17.1844 7.31251 17.2688V10.6875H6.60939ZM17.2688 10.6875H10.6875V17.2688C11.0813 17.1844 11.4469 17.0719 11.8125 16.9594V13.0781L14.7094 15.1875C15.1031 14.8219 15.4406 14.4281 15.7781 14.0063L12.7688 11.8125H14.6813L16.3969 13.0781C16.4813 12.9375 16.5656 12.7688 16.6219 12.6281L15.525 11.8125H16.9594C17.0719 11.4469 17.1844 11.0813 17.2688 10.6875" fill="white"/>
<path d="M2.16565 13.95C2.39065 14.2594 2.61565 14.5406 2.86877 14.8219L6.18752 12.4031V11.8406H5.06252L2.16565 13.95ZM12.7969 11.8125L15.8063 14.0063C15.9188 13.8656 16.0031 13.725 16.1156 13.5844C16.1438 13.5562 16.1438 13.5281 16.1719 13.5281C16.2563 13.3875 16.3688 13.2188 16.4531 13.0781L14.6813 11.8125H12.7969Z" fill="#ED4C5C"/>
<path d="M11.8125 1.04053V4.92178L14.7094 2.78428C13.8938 2.0249 12.9094 1.43428 11.8125 1.04053ZM6.18752 1.04053C5.09065 1.43428 4.10627 2.0249 3.29065 2.78428L6.18752 4.9499V1.04053ZM16.9594 6.1874C16.875 5.90615 16.7625 5.65303 16.6219 5.37178L15.525 6.1874H16.9594M2.47502 6.1874L1.37815 5.37178C1.26565 5.65303 1.15315 5.90615 1.04065 6.1874H2.47502Z" fill="#2A5F9E"/>
<path d="M11.3906 7.31245H17.2406C17.1563 6.9187 17.0438 6.55308 16.9313 6.18745H15.4969L16.5938 5.37183C16.3688 4.8937 16.1156 4.47183 15.8063 4.04995L12.9375 6.18745H11.8125V5.62495L15.1031 3.2062L14.7094 2.81245L11.8125 4.92183V1.04058C11.4469 0.899951 11.0813 0.815576 10.6875 0.731201V7.31245H11.3906ZM0.731262 7.31245H7.31251V0.731201C6.91876 0.815576 6.55314 0.928076 6.18751 1.04058V4.92183L3.29064 2.81245C2.89689 3.17808 2.55939 3.57183 2.22189 3.9937L5.23126 6.18745H3.31876L1.60314 4.92183C1.51876 5.06245 1.43439 5.2312 1.37814 5.37183L2.47501 6.18745H1.04064C0.928137 6.55308 0.815637 6.9187 0.731262 7.31245Z" fill="white"/>
<path d="M15.8344 4.0501C15.6094 3.74072 15.3844 3.45947 15.1313 3.17822L11.8125 5.59697V6.15947H12.9375L15.8344 4.0501M5.20314 6.1876L2.22189 3.99385C2.10939 4.13447 2.02501 4.2751 1.91251 4.41572C1.88439 4.44385 1.88439 4.47197 1.85626 4.47197C1.77189 4.6126 1.65939 4.78135 1.57501 4.92197L3.29064 6.1876H5.20314Z" fill="#ED4C5C"/>
<path d="M17.2688 7.3125H10.6875V0.73125C10.1531 0.61875 9.59062 0.5625 9 0.5625C8.40938 0.5625 7.84687 0.61875 7.3125 0.73125V7.3125H0.73125C0.61875 7.84687 0.5625 8.40938 0.5625 9C0.5625 9.59062 0.61875 10.1531 0.73125 10.6875H7.3125V17.2688C7.84687 17.3813 8.40938 17.4375 9 17.4375C9.59062 17.4375 10.1531 17.3813 10.6875 17.2688V10.6875H17.2688C17.3813 10.1531 17.4375 9.59062 17.4375 9C17.4375 8.40938 17.3813 7.84687 17.2688 7.3125Z" fill="#ED4C5C"/>
</g>
<defs>
<clipPath id="clip0_1291_3651">
<rect width="18" height="18" fill="white"/>
</clipPath>
</defs>
</svg>
