<svg width="12" height="12" viewBox="0 0 12 12" fill="none" xmlns="http://www.w3.org/2000/svg">
<g clip-path="url(#clip0_1291_658)">
<path d="M4.12498 11.3062V8.71875L2.19373 10.1437C2.73748 10.65 3.39373 11.0437 4.12498 11.3062M7.87497 11.3062C8.60622 11.0437 9.26247 10.65 9.80622 10.1437L7.87497 8.7V11.3062M0.693726 7.875C0.749976 8.0625 0.824976 8.23125 0.918726 8.41875L1.64998 7.875H0.693726ZM10.35 7.875L11.0812 8.41875C11.1562 8.25 11.2312 8.0625 11.3062 7.875H10.35Z" fill="#2A5F9E"/>
<path d="M4.40624 7.125H0.487488C0.543738 7.3875 0.618738 7.63125 0.693738 7.875H1.64999L0.918738 8.41875C1.06874 8.7375 1.23749 9.01875 1.44374 9.3L3.37499 7.875H4.12499V8.25L1.93124 9.8625L2.19374 10.125L4.12499 8.71875V11.3063C4.36874 11.4 4.61249 11.4563 4.87499 11.5125V7.125H4.40624ZM11.5125 7.125H7.12499V11.5125C7.38749 11.4563 7.63124 11.3813 7.87499 11.3063V8.71875L9.80624 10.125C10.0687 9.88125 10.2937 9.61875 10.5187 9.3375L8.51249 7.875H9.78749L10.9312 8.71875C10.9875 8.625 11.0437 8.5125 11.0812 8.41875L10.35 7.875H11.3062C11.3812 7.63125 11.4562 7.3875 11.5125 7.125" fill="white"/>
<path d="M1.44373 9.3C1.59373 9.50625 1.74373 9.69375 1.91248 9.88125L4.12498 8.26875V7.89375H3.37498L1.44373 9.3ZM8.53123 7.875L10.5375 9.3375C10.6125 9.24375 10.6687 9.15 10.7437 9.05625C10.7625 9.0375 10.7625 9.01875 10.7812 9.01875C10.8375 8.925 10.9125 8.8125 10.9687 8.71875L9.78748 7.875H8.53123Z" fill="#ED4C5C"/>
<path d="M7.87497 0.693848V3.28135L9.80622 1.85635C9.26247 1.3501 8.60622 0.956348 7.87497 0.693848ZM4.12498 0.693848C3.39373 0.956348 2.73748 1.3501 2.19373 1.85635L4.12498 3.3001V0.693848ZM11.3062 4.1251C11.25 3.9376 11.175 3.76885 11.0812 3.58135L10.35 4.1251H11.3062M1.64998 4.1251L0.918726 3.58135C0.843726 3.76885 0.768726 3.9376 0.693726 4.1251H1.64998Z" fill="#2A5F9E"/>
<path d="M7.59374 4.87505H11.4937C11.4375 4.61255 11.3625 4.3688 11.2875 4.12505H10.3312L11.0625 3.5813C10.9125 3.26255 10.7437 2.9813 10.5375 2.70005L8.62499 4.12505H7.87499V3.75005L10.0687 2.13755L9.80624 1.87505L7.87499 3.2813V0.693799C7.63124 0.600049 7.38749 0.543799 7.12499 0.487549V4.87505H7.59374ZM0.487488 4.87505H4.87499V0.487549C4.61249 0.543799 4.36874 0.618799 4.12499 0.693799V3.2813L2.19374 1.87505C1.93124 2.1188 1.70624 2.3813 1.48124 2.66255L3.48749 4.12505H2.21249L1.06874 3.2813C1.01249 3.37505 0.956238 3.48755 0.918738 3.5813L1.64999 4.12505H0.693738C0.618738 4.3688 0.543738 4.61255 0.487488 4.87505Z" fill="white"/>
<path d="M10.5562 2.6999C10.4062 2.49365 10.2562 2.30615 10.0875 2.11865L7.87499 3.73115V4.10615H8.62499L10.5562 2.6999M3.46874 4.1249L1.48124 2.6624C1.40624 2.75615 1.34999 2.8499 1.27499 2.94365C1.25624 2.9624 1.25624 2.98115 1.23749 2.98115C1.18124 3.0749 1.10624 3.1874 1.04999 3.28115L2.19374 4.1249H3.46874Z" fill="#ED4C5C"/>
<path d="M11.5125 4.875H7.125V0.4875C6.76875 0.4125 6.39375 0.375 6 0.375C5.60625 0.375 5.23125 0.4125 4.875 0.4875V4.875H0.4875C0.4125 5.23125 0.375 5.60625 0.375 6C0.375 6.39375 0.4125 6.76875 0.4875 7.125H4.875V11.5125C5.23125 11.5875 5.60625 11.625 6 11.625C6.39375 11.625 6.76875 11.5875 7.125 11.5125V7.125H11.5125C11.5875 6.76875 11.625 6.39375 11.625 6C11.625 5.60625 11.5875 5.23125 11.5125 4.875Z" fill="#ED4C5C"/>
</g>
<defs>
<clipPath id="clip0_1291_658">
<rect width="12" height="12" fill="white"/>
</clipPath>
</defs>
</svg>
