<svg width="100" height="100" viewBox="0 0 100 100" fill="none" xmlns="http://www.w3.org/2000/svg">
<g clip-path="url(#clip0_711_3600)">
<path d="M87.6736 0H12.3264C5.51871 0 0 5.51871 0 12.3264V87.6736C0 94.4813 5.51871 100 12.3264 100H87.6736C94.4813 100 100 94.4813 100 87.6736V12.3264C100 5.51871 94.4813 0 87.6736 0Z" fill="url(#paint0_linear_711_3600)"/>
<path d="M24.633 73.807C24.633 73.0354 25.028 72.6426 25.8182 72.6284C26.6083 72.6143 27.0034 72.9974 27.0034 73.7779L26.961 78.8449C26.961 79.3832 26.7148 79.6483 26.2225 79.6404L21.1847 79.6762C19.4426 79.6762 18.0382 79.1428 16.9714 78.076C15.9046 77.0092 15.3734 75.6048 15.3778 73.8627C15.3778 72.1171 15.9103 70.7118 16.9754 69.6468C18.0404 68.5818 19.4289 68.0373 21.1409 68.0135L25.9667 68.0002C26.6388 67.9896 26.9756 68.3741 26.9756 69.1496C26.9756 69.9252 26.6481 70.3084 25.9958 70.2991L25.4284 70.3269L21.1701 70.3415C20.1484 70.3609 19.3153 70.6981 18.671 71.3531C18.0267 72.008 17.705 72.8445 17.7059 73.8627C17.7059 75.3343 18.302 76.3658 19.4943 76.957C20.0208 77.2214 20.6022 77.3577 21.1913 77.3548L24.0655 77.3123C24.4434 77.3415 24.633 77.1705 24.633 76.8019V73.807Z" fill="white"/>
<path d="M34.6041 68.0493C36.3611 68.0493 37.7691 68.5796 38.8279 69.6402C39.8868 70.7008 40.4171 72.1088 40.4189 73.8641C40.4189 75.6088 39.8863 77.0137 38.8213 78.0787C37.7563 79.1437 36.351 79.674 34.6054 79.6696C32.8651 79.6696 31.4611 79.1362 30.3935 78.0694C29.3258 77.0026 28.7906 75.6004 28.788 73.8628C28.788 72.1172 29.3205 70.7119 30.3855 69.6469C31.4505 68.5818 32.8567 68.0493 34.6041 68.0493ZM34.6041 70.3707C33.5682 70.3707 32.7286 70.6982 32.0851 71.3531C31.4417 72.008 31.12 72.8446 31.12 73.8628C31.12 75.3344 31.7161 76.3658 32.9084 76.9571C33.4344 77.2214 34.0154 77.3576 34.6041 77.3548C35.9484 77.3548 36.9493 76.8245 37.6069 75.7639C37.9463 75.1891 38.1159 74.53 38.0961 73.8628C38.0961 72.7597 37.7368 71.8887 37.0183 71.2497C36.3532 70.6628 35.4909 70.3488 34.6041 70.3707Z" fill="white"/>
<path d="M52.7615 77.311C53.4332 77.3216 53.7695 77.7145 53.7704 78.4896C53.7713 79.2648 53.435 79.6576 52.7615 79.6682H47.9888C46.2467 79.6682 44.8423 79.1348 43.7755 78.068C42.7087 77.0012 42.1762 75.5995 42.178 73.8627C42.178 72.1171 42.7105 70.7118 43.7755 69.6468C44.8405 68.5818 46.2383 68.0373 47.9689 68.0135L52.7668 68.0002C53.439 67.9896 53.7757 68.3741 53.7757 69.1496C53.7757 69.9252 53.4483 70.3084 52.796 70.2991L52.4261 70.3269L47.9689 70.3415C46.9481 70.3609 46.1155 70.6981 45.4712 71.3531C44.8268 72.008 44.5051 72.8445 44.506 73.8627C44.506 75.3343 45.1022 76.3658 46.2945 76.957C46.8127 77.219 47.3886 77.3457 47.9689 77.3256L52.7615 77.311Z" fill="white"/>
<path d="M55.5297 72.0596V69.2066C55.5297 68.435 55.9247 68.0421 56.7149 68.028C57.505 68.0138 57.886 68.4018 57.8577 69.192V78.4962C57.8869 79.2819 57.5059 79.6699 56.7149 79.6602C55.9194 79.6469 55.5297 79.2532 55.5297 78.4829V72.0596ZM67.1128 72.0596V69.2066C67.1128 68.435 66.7178 68.0421 65.9276 68.028C65.1374 68.0138 64.7565 68.4018 64.7848 69.192V71.9761C64.7848 72.4489 64.5859 72.6858 64.1882 72.6867H60.2666C59.4711 72.7013 59.2378 73.0937 59.2378 73.8653C59.2378 74.6369 59.4433 75.0187 60.2666 75.0001L64.1325 74.9855C64.5674 74.9855 64.7848 75.2136 64.7848 75.667V78.4988C64.7574 79.2845 65.1383 79.6725 65.9276 79.6628C66.7231 79.6496 67.1128 79.2558 67.1128 78.4855V72.0596Z" fill="white"/>
<path d="M68.9438 72.0596V69.2066C68.9438 68.435 69.3389 68.0421 70.1291 68.028C70.9192 68.0138 71.3002 68.4018 71.2719 69.192V78.4962C71.2993 79.2819 70.9183 79.6699 70.1291 79.6602C69.3336 79.6469 68.9438 79.2532 68.9438 78.4829V72.0596Z" fill="white"/>
<path d="M79.1004 75.0002L75.3524 74.9856V76.4771C75.3524 77.0445 75.5805 77.3243 76.0339 77.3137H83.6146C84.2854 77.3243 84.6213 77.7171 84.6222 78.4923C84.6231 79.2674 84.2695 79.6505 83.5616 79.6417H80.69L74.2746 79.6563C73.4403 79.6563 73.0235 79.202 73.0244 78.2934V69.3763C73.0244 68.4686 73.4221 68.0144 74.2176 68.0135L83.6146 68.0002C84.2854 67.9896 84.6222 68.3741 84.6222 69.1496C84.6222 69.9252 84.296 70.3084 83.6424 70.2991H76.0339C75.5805 70.3269 75.3524 70.6067 75.3524 71.137V72.6841H79.1494C79.9396 72.6991 80.3347 73.092 80.3347 73.8627C80.3347 74.6334 79.9232 75.0126 79.1004 75.0002Z" fill="white"/>
<path d="M46.4852 32.0413C46.2734 32.0415 46.0682 31.9673 45.9054 31.8316C45.7427 31.696 45.6328 31.5075 45.5949 31.2991H44.0915C43.6906 31.2989 43.2929 31.37 42.917 31.5092C42.4133 31.7542 41.9466 32.069 41.5307 32.4443C40.4955 33.4109 39.7182 34.6209 39.2695 35.9643C40.2295 36.0224 41.1311 36.4446 41.7902 37.1449C42.4494 37.8451 42.8165 38.7706 42.8165 39.7323C42.8165 40.694 42.4494 41.6194 41.7902 42.3197C41.1311 43.0199 40.2295 43.4422 39.2695 43.5003C39.7182 44.8437 40.4955 46.0536 41.5307 47.0203C41.9461 47.3961 42.4129 47.7109 42.917 47.9554C43.2929 48.0945 43.6906 48.1657 44.0915 48.1655H45.5949C45.6328 47.9572 45.7426 47.7689 45.9052 47.6333C46.0677 47.4977 46.2727 47.4234 46.4843 47.4234C46.696 47.4234 46.901 47.4977 47.0635 47.6333C47.2261 47.7689 47.3359 47.9572 47.3738 48.1655H61.2214V45.8492H56.2617C55.8897 45.849 55.5217 45.7724 55.1805 45.6243C54.8393 45.4762 54.532 45.2597 54.2778 44.9882L51.0144 41.4682C50.5507 40.968 50.293 40.311 50.293 39.629C50.293 38.9469 50.5507 38.29 51.0144 37.7897L54.2778 34.2697C54.5321 33.9983 54.8394 33.7819 55.1806 33.6338C55.5218 33.4857 55.8897 33.4091 56.2617 33.4087H59.8006H67.3779H67.4847H67.8291C67.5497 32.7923 67.1005 32.2682 66.5342 31.8977C65.9679 31.5272 65.3078 31.3255 64.6312 31.3163H47.3738C47.3327 31.5214 47.2216 31.7059 47.0595 31.8381C46.8974 31.9704 46.6944 32.0422 46.4852 32.0413ZM47.3876 45.8716C47.3774 46.1044 47.2778 46.3242 47.1095 46.4853C46.9413 46.6464 46.7173 46.7363 46.4843 46.7363C46.2514 46.7363 46.0274 46.6464 45.8591 46.4853C45.6909 46.3242 45.5913 46.1044 45.5811 45.8716V43.4159C45.5758 43.294 45.5952 43.1722 45.6382 43.058C45.6812 42.9438 45.7468 42.8394 45.8312 42.7512C45.9156 42.6631 46.017 42.5929 46.1293 42.545C46.2415 42.497 46.3623 42.4723 46.4843 42.4723C46.6064 42.4723 46.7272 42.497 46.8394 42.545C46.9517 42.5929 47.053 42.6631 47.1374 42.7512C47.2218 42.8394 47.2875 42.9438 47.3305 43.058C47.3735 43.1722 47.3929 43.294 47.3876 43.4159V45.8716ZM47.3876 40.9602C47.3929 41.0821 47.3735 41.2038 47.3305 41.3181C47.2875 41.4323 47.2218 41.5366 47.1374 41.6248C47.053 41.713 46.9517 41.7831 46.8394 41.8311C46.7272 41.879 46.6064 41.9037 46.4843 41.9037C46.3623 41.9037 46.2415 41.879 46.1293 41.8311C46.017 41.7831 45.9156 41.713 45.8312 41.6248C45.7468 41.5366 45.6812 41.4323 45.6382 41.3181C45.5952 41.2038 45.5758 41.0821 45.5811 40.9602V38.501C45.5913 38.2682 45.6909 38.0484 45.8591 37.8873C46.0274 37.7262 46.2514 37.6363 46.4843 37.6363C46.7173 37.6363 46.9413 37.7262 47.1095 37.8873C47.2778 38.0484 47.3774 38.2682 47.3876 38.501V40.9602ZM47.3876 33.5947V36.0487C47.3929 36.1706 47.3735 36.2924 47.3305 36.4066C47.2875 36.5208 47.2218 36.6252 47.1374 36.7133C47.053 36.8015 46.9517 36.8717 46.8394 36.9196C46.7272 36.9675 46.6064 36.9922 46.4843 36.9922C46.3623 36.9922 46.2415 36.9675 46.1293 36.9196C46.017 36.8717 45.9156 36.8015 45.8312 36.7133C45.7468 36.6252 45.6812 36.5208 45.6382 36.4066C45.5952 36.2924 45.5758 36.1706 45.5811 36.0487V33.5947C45.5758 33.4727 45.5952 33.351 45.6382 33.2367C45.6812 33.1225 45.7468 33.0182 45.8312 32.93C45.9156 32.8418 46.017 32.7717 46.1293 32.7237C46.2415 32.6758 46.3623 32.6511 46.4843 32.6511C46.6064 32.6511 46.7272 32.6758 46.8394 32.7237C46.9517 32.7717 47.053 32.8418 47.1374 32.93C47.2218 33.0182 47.2875 33.1225 47.3305 33.2367C47.3735 33.351 47.3929 33.4727 47.3876 33.5947Z" fill="white"/>
<path d="M67.8412 35.1996H67.6156H67.4055L59.8058 35.2082H56.2617C56.1381 35.208 56.0158 35.2335 55.9026 35.283C55.7894 35.3325 55.6876 35.4049 55.6038 35.4958L52.3318 39.014C52.1773 39.1798 52.0915 39.398 52.0915 39.6245C52.0915 39.8511 52.1773 40.0693 52.3318 40.235L55.6038 43.755C55.6876 43.8459 55.7894 43.9183 55.9026 43.9678C56.0158 44.0173 56.1381 44.0428 56.2617 44.0426H62.1306C62.3686 44.0426 62.5968 44.1372 62.7651 44.3054C62.9333 44.4737 63.0279 44.7019 63.0279 44.9399V50.9914C63.0279 52.2887 62.4102 52.9374 61.1749 52.9374C61.0922 52.9374 61.0027 52.9374 60.9148 52.9288H60.8494L50.0001 53.0889C47.7717 53.1017 45.572 52.5878 43.58 51.589C39.0681 49.3525 36.8115 45.449 36.8104 39.8786C36.8104 36.0279 38.0285 32.8626 40.4647 30.3828C42.8251 27.9718 45.8601 26.6992 49.5695 26.5649L56.7198 26.5408H58.8414C61.4125 26.446 62.5715 25.0115 62.5715 22.0753C62.5715 19.1741 61.331 17.7235 58.85 17.7235H58.7587H57.4723V17.708L49.8089 17.7304C43.3246 17.8199 38.0686 19.879 34.0412 23.9076C30.0137 27.9362 28 33.2599 28 39.8786C28 46.4674 30.0195 51.7813 34.0584 55.8202C38.0973 59.8591 43.4112 61.8757 50.0001 61.87L69.045 61.7357H69.1414C70.9393 61.7357 71.8382 60.7323 71.8382 58.7254L71.9622 44.065L72.0001 39.5479C72.0001 36.7213 70.6138 35.2719 67.8412 35.1996Z" fill="white"/>
</g>
<defs>
<linearGradient id="paint0_linear_711_3600" x1="0" y1="50" x2="100" y2="50" gradientUnits="userSpaceOnUse">
<stop stop-color="#F34C91"/>
<stop offset="1" stop-color="#791244"/>
</linearGradient>
<clipPath id="clip0_711_3600">
<rect width="100" height="100" fill="white"/>
</clipPath>
</defs>
</svg>
